<svg version="1.1" xmlns="http://www.w3.org/2000/svg" xmlns:xlink="http://www.w3.org/1999/xlink" width="931" height="832"><defs/><g><g/><g/><g/><g/><g/><g/><g/><g/><g/><g/><g/><g/><g/><g/><g/><g><rect fill="white" stroke="none" x="0" y="0" width="931" height="832"/></g><g/><g><path fill="none" stroke="black" paint-order="fill stroke markers" d=" M 74.77103508450391 55.049635120999994 L 74.77103508450391 832.605312201" stroke-miterlimit="10" stroke-width="1.3612669416666667" stroke-dasharray="12.565541,5.445067766666667"/><path fill="none" stroke="black" paint-order="fill stroke markers" d=" M 652.490207588931 55.049635120999994 L 652.490207588931 832.605312201" stroke-miterlimit="10" stroke-width="1.3612669416666667" stroke-dasharray="12.565541,5.445067766666667"/></g><g><path fill="none" stroke="none"/><g><path fill="white" stroke="black" paint-order="fill stroke markers" d=" M 8.167601649999995 10.944586211000003 L 141.37446851900782 10.944586211000003 L 141.37446851900782 55.049635120999994 L 8.167601649999995 55.049635120999994 L 8.167601649999995 10.944586211000003 Z" stroke-miterlimit="10" stroke-width="2.613632528" stroke-dasharray=""/></g><g><g/><text fill="black" stroke="none" font-family="sans-serif" font-size="11pt" font-style="normal" font-weight="normal" text-decoration="normal" x="25.8912972305" y="38.71443182099999" text-anchor="start" dominant-baseline="alphabetic">OPC UA Client</text></g><path fill="none" stroke="none"/><g><path fill="white" stroke="black" paint-order="fill stroke markers" d=" M 583.0378209073567 10.944586211000003 L 721.9425942705052 10.944586211000003 L 721.9425942705052 55.049635120999994 L 583.0378209073567 55.049635120999994 L 583.0378209073567 10.944586211000003 Z" stroke-miterlimit="10" stroke-width="2.613632528" stroke-dasharray=""/></g><g><g/><text fill="black" stroke="none" font-family="sans-serif" font-size="11pt" font-style="normal" font-weight="normal" text-decoration="normal" x="600.7615164878567" y="38.71443182099999" text-anchor="start" dominant-baseline="alphabetic">OPC UA Server</text></g></g><g><g><g><rect fill="white" stroke="none" x="143.58199794620967" y="87.720041721" width="440.0972467810156" height="21.23576429"/></g><text fill="black" stroke="none" font-family="sans-serif" font-size="11pt" font-style="normal" font-weight="normal" text-decoration="normal" x="146.03227844120966" y="102.42172469100001" text-anchor="start" dominant-baseline="alphabetic">PrepareRecipe (ExternalId = {Id = 1, version = 1, hash = 8933292})</text></g><g><path fill="none" stroke="black" paint-order="fill stroke markers" d=" M 74.77103508450391 108.95580601099999 L 649.7676737055976 108.95580601099999" stroke-miterlimit="10" stroke-width="1.3612669416666667" stroke-dasharray=""/><g transform="translate(652.490207588931,108.95580601099999) translate(-652.490207588931,-108.95580601099999)"><path fill="black" stroke="none" paint-order="stroke fill markers" d=" M 638.8775381722643 102.14947130266665 L 652.490207588931 108.95580601099999 L 638.8775381722643 115.76214071933333 Z"/></g></g><path fill="white" stroke="black" paint-order="fill stroke markers" d=" M 381.48576061541536 133.45861096099998 L 908.7929715924466 133.45861096099998 L 923.4946545624466 148.16029393099998 L 923.4946545624466 171.029578551 L 381.48576061541536 171.029578551 L 381.48576061541536 133.45861096099998 M 908.7929715924466 133.45861096099998 L 908.7929715924466 148.16029393099998 L 923.4946545624466 148.16029393099998" stroke-miterlimit="10" stroke-width="1.3612669416666667" stroke-dasharray=""/><g><text fill="black" stroke="none" font-family="sans-serif" font-size="11pt" font-style="normal" font-weight="normal" text-decoration="normal" x="404.35504523541533" y="156.32789558099995" text-anchor="start" dominant-baseline="alphabetic">Recipe content already present (transfer required)? Check using hash value.</text></g><path fill="white" stroke="black" paint-order="fill stroke markers" d=" M 563.2071961622904 195.53238350099997 L 727.0715360455716 195.53238350099997 L 741.7732190155716 210.23406647099998 L 741.7732190155716 233.10335109099998 L 563.2071961622904 233.10335109099998 L 563.2071961622904 195.53238350099997 M 727.0715360455716 195.53238350099997 L 727.0715360455716 210.23406647099998 L 741.7732190155716 210.23406647099998" stroke-miterlimit="10" stroke-width="1.3612669416666667" stroke-dasharray=""/><g><text fill="black" stroke="none" font-family="sans-serif" font-size="11pt" font-style="normal" font-weight="normal" text-decoration="normal" x="586.0764807822903" y="218.40166812099994" text-anchor="start" dominant-baseline="alphabetic">Create InternalIdOut</text></g><g><g><rect fill="white" stroke="none" x="149.07590968937373" y="257.60615604099996" width="429.1094232946875" height="21.23576429"/></g><text fill="black" stroke="none" font-family="sans-serif" font-size="11pt" font-style="normal" font-weight="normal" text-decoration="normal" x="151.52619018437372" y="272.30783901099994" text-anchor="start" dominant-baseline="alphabetic">InternalIdOut = {Id = 1_1, version = 1, hash = 8933292}, Error = 0</text></g><g><path fill="none" stroke="black" paint-order="fill stroke markers" d=" M 652.490207588931 278.841920331 L 77.49356896783723 278.841920331" stroke-miterlimit="10" stroke-width="1.3612669416666667" stroke-dasharray="6.53408132"/><g transform="translate(74.77103508450391,278.841920331) translate(-74.77103508450391,-278.841920331)"><path fill="black" stroke="none" paint-order="stroke fill markers" d=" M 88.38370450117057 272.03558562266664 L 74.77103508450391 278.841920331 L 88.38370450117057 285.6482550393333 Z"/></g></g><g><g><rect fill="white" stroke="none" x="147.4438448700378" y="303.34472528099997" width="287.663500443125" height="21.23576429"/></g><g><rect fill="white" stroke="none" x="147.4438448700378" y="319.67992858099996" width="432.37355293335935" height="21.23576429"/></g><text fill="black" stroke="none" font-family="sans-serif" font-size="11pt" font-style="normal" font-weight="normal" text-decoration="normal" x="149.89412536503778" y="318.04640825099995" text-anchor="start" dominant-baseline="alphabetic">StartSingleJob (MeasId = null, PartId = null,</text><text fill="black" stroke="none" font-family="sans-serif" font-size="11pt" font-style="normal" font-weight="normal" text-decoration="normal" x="149.89412536503778" y="334.38161155099993" text-anchor="start" dominant-baseline="alphabetic">  RecipeId = ExternalId = {Id = 1_1, version = 1, hash = 8933292})</text></g><g><path fill="none" stroke="black" paint-order="fill stroke markers" d=" M 74.77103508450391 340.915692871 L 649.7676737055976 340.915692871" stroke-miterlimit="10" stroke-width="1.3612669416666667" stroke-dasharray=""/><g transform="translate(652.490207588931,340.915692871) translate(-652.490207588931,-340.915692871)"><path fill="black" stroke="none" paint-order="stroke fill markers" d=" M 638.8775381722643 334.10935816266664 L 652.490207588931 340.915692871 L 638.8775381722643 347.7220275793333 Z"/></g></g><path fill="white" stroke="black" paint-order="fill stroke markers" d=" M 585.6159257155131 365.41849782099996 L 704.662806492349 365.41849782099996 L 719.364489462349 380.12018079099994 L 719.364489462349 402.98946541099997 L 585.6159257155131 402.98946541099997 L 585.6159257155131 365.41849782099996 M 704.662806492349 365.41849782099996 L 704.662806492349 380.12018079099994 L 719.364489462349 380.12018079099994" stroke-miterlimit="10" stroke-width="1.3612669416666667" stroke-dasharray=""/><g><text fill="black" stroke="none" font-family="sans-serif" font-size="11pt" font-style="normal" font-weight="normal" text-decoration="normal" x="608.485210335513" y="388.28778244099993" text-anchor="start" dominant-baseline="alphabetic">Create JobId.</text></g><path fill="white" stroke="black" paint-order="fill stroke markers" d=" M 562.3947571974467 427.49227036099995 L 727.8839750104154 427.49227036099995 L 742.5856579804154 442.19395333099993 L 742.5856579804154 465.06323795099996 L 562.3947571974467 465.06323795099996 L 562.3947571974467 427.49227036099995 M 727.8839750104154 427.49227036099995 L 727.8839750104154 442.19395333099993 L 742.5856579804154 442.19395333099993" stroke-miterlimit="10" stroke-width="1.3612669416666667" stroke-dasharray=""/><g><text fill="black" stroke="none" font-family="sans-serif" font-size="11pt" font-style="normal" font-weight="normal" text-decoration="normal" x="585.2640418174466" y="450.3615549809999" text-anchor="start" dominant-baseline="alphabetic">Start StartSingleJob.</text></g><path fill="white" stroke="black" paint-order="fill stroke markers" d=" M 454.4277161818216 489.56604290099995 L 835.8510160260404 489.56604290099995 L 850.5526989960404 504.2677258709999 L 850.5526989960404 527.137010491 L 454.4277161818216 527.137010491 L 454.4277161818216 489.56604290099995 M 835.8510160260404 489.56604290099995 L 835.8510160260404 504.2677258709999 L 850.5526989960404 504.2677258709999" stroke-miterlimit="10" stroke-width="1.3612669416666667" stroke-dasharray=""/><g><text fill="black" stroke="none" font-family="sans-serif" font-size="11pt" font-style="normal" font-weight="normal" text-decoration="normal" x="477.2970008018216" y="512.435327521" text-anchor="start" dominant-baseline="alphabetic">State machine transits from Ready to SingleExecution</text></g><g><g><rect fill="white" stroke="none" x="298.0271807465026" y="551.6398154409999" width="131.2068811804297" height="21.23576429"/></g><text fill="black" stroke="none" font-family="sans-serif" font-size="11pt" font-style="normal" font-weight="normal" text-decoration="normal" x="300.4774612415026" y="566.3414984109999" text-anchor="start" dominant-baseline="alphabetic">JobId = 1, Error = 0</text></g><g><path fill="none" stroke="black" paint-order="fill stroke markers" d=" M 652.490207588931 572.8755797309999 L 77.49356896783723 572.8755797309999" stroke-miterlimit="10" stroke-width="1.3612669416666667" stroke-dasharray="6.53408132"/><g transform="translate(74.77103508450391,572.8755797309999) translate(-74.77103508450391,-572.8755797309999)"><path fill="black" stroke="none" paint-order="stroke fill markers" d=" M 88.38370450117057 566.0692450226666 L 74.77103508450391 572.8755797309999 L 88.38370450117057 579.6819144393332 Z"/></g></g><path fill="white" stroke="black" paint-order="fill stroke markers" d=" M 546.5035599928568 597.378384681 L 743.7751722150052 597.378384681 L 758.4768551850052 612.0800676509999 L 758.4768551850052 634.949352271 L 546.5035599928568 634.949352271 L 546.5035599928568 597.378384681 M 743.7751722150052 597.378384681 L 743.7751722150052 612.0800676509999 L 758.4768551850052 612.0800676509999" stroke-miterlimit="10" stroke-width="1.3612669416666667" stroke-dasharray=""/><g><text fill="black" stroke="none" font-family="sans-serif" font-size="11pt" font-style="normal" font-weight="normal" text-decoration="normal" x="569.3728446128567" y="620.247669301" text-anchor="start" dominant-baseline="alphabetic">Complete StartSingleJob.</text></g><path fill="white" stroke="black" paint-order="fill stroke markers" d=" M 454.4277161818216 659.4521572209999 L 835.8510160260404 659.4521572209999 L 850.5526989960404 674.1538401909999 L 850.5526989960404 697.0231248109999 L 454.4277161818216 697.0231248109999 L 454.4277161818216 659.4521572209999 M 835.8510160260404 659.4521572209999 L 835.8510160260404 674.1538401909999 L 850.5526989960404 674.1538401909999" stroke-miterlimit="10" stroke-width="1.3612669416666667" stroke-dasharray=""/><g><text fill="black" stroke="none" font-family="sans-serif" font-size="11pt" font-style="normal" font-weight="normal" text-decoration="normal" x="477.2970008018216" y="682.3214418409999" text-anchor="start" dominant-baseline="alphabetic">State machine transits from SingleExecution to Ready</text></g><g><g><rect fill="white" stroke="none" x="94.10102565617059" y="721.5259297609999" width="539.0591913610938" height="21.23576429"/></g><g><rect fill="white" stroke="none" x="94.10102565617059" y="737.8611330609999" width="299.7680536657812" height="21.23576429"/></g><g><rect fill="white" stroke="none" x="94.10102565617059" y="754.1963363609999" width="535.451586380625" height="21.23576429"/></g><text fill="black" stroke="none" font-family="sans-serif" font-size="11pt" font-style="normal" font-weight="normal" text-decoration="normal" x="96.55130615117059" y="736.2276127309999" text-anchor="start" dominant-baseline="alphabetic">Event (ResultId = 1, IsPartial = false, IsSimulated = false, JobState = 0, JobId = 1, </text><text fill="black" stroke="none" font-family="sans-serif" font-size="11pt" font-style="normal" font-weight="normal" text-decoration="normal" x="96.55130615117059" y="752.5628160309999" text-anchor="start" dominant-baseline="alphabetic"> CreationTime = 2019-07-14T10:31:37.132Z, </text><text fill="black" stroke="none" font-family="sans-serif" font-size="11pt" font-style="normal" font-weight="normal" text-decoration="normal" x="96.55130615117059" y="768.8980193309999" text-anchor="start" dominant-baseline="alphabetic"> ResultContent = pose = {x = 2, y = 1, z = 2, alpha = 70, beta = 50, gamma = 90}) </text></g><g><path fill="none" stroke="black" paint-order="fill stroke markers" d=" M 652.490207588931 775.4321006509999 L 77.49356896783723 775.4321006509999" stroke-miterlimit="10" stroke-width="1.3612669416666667" stroke-dasharray=""/><g transform="translate(74.77103508450391,775.4321006509999) translate(-74.77103508450391,-775.4321006509999)"><path fill="black" stroke="none" paint-order="stroke fill markers" d=" M 88.38370450117057 768.6257659426666 L 74.77103508450391 775.4321006509999 L 88.38370450117057 782.2384353593333 Z"/></g></g></g><g/><g/></g></svg>