<svg version="1.1" xmlns="http://www.w3.org/2000/svg" xmlns:xlink="http://www.w3.org/1999/xlink" width="1021" height="875"><defs/><g><g/><g/><g/><g/><g/><g/><g/><g/><g/><g/><g/><g/><g/><g/><g><rect fill="white" stroke="none" x="0" y="0" width="1021" height="875"/></g><g/><g><path fill="none" stroke="black" paint-order="fill stroke markers" d=" M 74.77103508450391 55.049635120999994 L 74.77103508450391 875.0768407809999" stroke-miterlimit="10" stroke-width="1.3612669416666667" stroke-dasharray="12.565541,5.445067766666667"/><path fill="none" stroke="black" paint-order="fill stroke markers" d=" M 768.0021094443997 55.049635120999994 L 768.0021094443997 875.0768407809999" stroke-miterlimit="10" stroke-width="1.3612669416666667" stroke-dasharray="12.565541,5.445067766666667"/></g><g><path fill="none" stroke="none"/><g><path fill="white" stroke="black" paint-order="fill stroke markers" d=" M 8.167601649999995 10.944586211000003 L 141.37446851900782 10.944586211000003 L 141.37446851900782 55.049635120999994 L 8.167601649999995 55.049635120999994 L 8.167601649999995 10.944586211000003 Z" stroke-miterlimit="10" stroke-width="2.613632528" stroke-dasharray=""/></g><g><g/><text fill="black" stroke="none" font-family="sans-serif" font-size="11pt" font-style="normal" font-weight="normal" text-decoration="normal" x="25.8912972305" y="38.71443182099999" text-anchor="start" dominant-baseline="alphabetic">OPC UA Client</text></g><path fill="none" stroke="none"/><g><path fill="white" stroke="black" paint-order="fill stroke markers" d=" M 698.5497227628255 10.944586211000003 L 837.454496125974 10.944586211000003 L 837.454496125974 55.049635120999994 L 698.5497227628255 55.049635120999994 L 698.5497227628255 10.944586211000003 Z" stroke-miterlimit="10" stroke-width="2.613632528" stroke-dasharray=""/></g><g><g/><text fill="black" stroke="none" font-family="sans-serif" font-size="11pt" font-style="normal" font-weight="normal" text-decoration="normal" x="716.2734183433255" y="38.71443182099999" text-anchor="start" dominant-baseline="alphabetic">OPC UA Server</text></g></g><g><g><g><rect fill="white" stroke="none" x="214.37301357120967" y="87.720041721" width="414.02711738648435" height="21.23576429"/></g><text fill="black" stroke="none" font-family="sans-serif" font-size="11pt" font-style="normal" font-weight="normal" text-decoration="normal" x="216.82329406620966" y="102.42172469100001" text-anchor="start" dominant-baseline="alphabetic">AddRecipe (ExternalId = {Id = 1, version = 1, hash = 8933292})</text></g><g><path fill="none" stroke="black" paint-order="fill stroke markers" d=" M 74.77103508450391 108.95580601099999 L 765.2795755610664 108.95580601099999" stroke-miterlimit="10" stroke-width="1.3612669416666667" stroke-dasharray=""/><g transform="translate(768.0021094443997,108.95580601099999) translate(-768.0021094443997,-108.95580601099999)"><path fill="black" stroke="none" paint-order="stroke fill markers" d=" M 754.389440027733 102.14947130266665 L 768.0021094443997 108.95580601099999 L 754.389440027733 115.76214071933333 Z"/></g></g><path fill="white" stroke="black" paint-order="fill stroke markers" d=" M 523.0785340529154 133.45861096099998 L 998.2240018658841 133.45861096099998 L 1012.9256848358841 148.16029393099998 L 1012.9256848358841 171.029578551 L 523.0785340529154 171.029578551 L 523.0785340529154 133.45861096099998 M 998.2240018658841 133.45861096099998 L 998.2240018658841 148.16029393099998 L 1012.9256848358841 148.16029393099998" stroke-miterlimit="10" stroke-width="1.3612669416666667" stroke-dasharray=""/><g><text fill="black" stroke="none" font-family="sans-serif" font-size="11pt" font-style="normal" font-weight="normal" text-decoration="normal" x="545.9478186729153" y="156.32789558099995" text-anchor="start" dominant-baseline="alphabetic">Recipe already present (transfer required)? Check using hash value.</text></g><path fill="white" stroke="black" paint-order="fill stroke markers" d=" M 632.6704529982279 195.53238350099997 L 888.6320829205716 195.53238350099997 L 903.3337658905716 210.23406647099998 L 903.3337658905716 233.10335109099998 L 632.6704529982279 233.10335109099998 L 632.6704529982279 195.53238350099997 M 888.6320829205716 195.53238350099997 L 888.6320829205716 210.23406647099998 L 903.3337658905716 210.23406647099998" stroke-miterlimit="10" stroke-width="1.3612669416666667" stroke-dasharray=""/><g><text fill="black" stroke="none" font-family="sans-serif" font-size="11pt" font-style="normal" font-weight="normal" text-decoration="normal" x="655.5397376182278" y="218.40166812099994" text-anchor="start" dominant-baseline="alphabetic">Create recipe object and InternalId</text></g><g><g><rect fill="white" stroke="none" x="151.78178127140498" y="257.60615604099996" width="539.2095819860938" height="21.23576429"/></g><text fill="black" stroke="none" font-family="sans-serif" font-size="11pt" font-style="normal" font-weight="normal" text-decoration="normal" x="154.23206176640497" y="272.30783901099994" text-anchor="start" dominant-baseline="alphabetic">InternalId = {Id = 1_1, version = 1, hash = null}, TransferRequired = True, Error = 0</text></g><g><path fill="none" stroke="black" paint-order="fill stroke markers" d=" M 768.0021094443997 278.841920331 L 77.49356896783723 278.841920331" stroke-miterlimit="10" stroke-width="1.3612669416666667" stroke-dasharray="6.53408132"/><g transform="translate(74.77103508450391,278.841920331) translate(-74.77103508450391,-278.841920331)"><path fill="black" stroke="none" paint-order="stroke fill markers" d=" M 88.38370450117057 272.03558562266664 L 74.77103508450391 278.841920331 L 88.38370450117057 285.6482550393333 Z"/></g></g><g><g><rect fill="white" stroke="none" x="110.00654323429559" y="303.34472528099997" width="622.7600580603125" height="21.23576429"/></g><text fill="black" stroke="none" font-family="sans-serif" font-size="11pt" font-style="normal" font-weight="normal" text-decoration="normal" x="112.45682372929559" y="318.04640825099995" text-anchor="start" dominant-baseline="alphabetic">GenerateFileForWrite (GenerateOptions = InternalId = {Id = 1_1, version = 1, hash = 8933292})</text></g><g><path fill="none" stroke="black" paint-order="fill stroke markers" d=" M 74.77103508450391 324.580489571 L 765.2795755610664 324.580489571" stroke-miterlimit="10" stroke-width="1.3612669416666667" stroke-dasharray=""/><g transform="translate(768.0021094443997,324.580489571) translate(-768.0021094443997,-324.580489571)"><path fill="black" stroke="none" paint-order="stroke fill markers" d=" M 754.389440027733 317.77415486266665 L 768.0021094443997 324.580489571 L 754.389440027733 331.3868242793333 Z"/></g></g><path fill="white" stroke="black" paint-order="fill stroke markers" d=" M 653.0605668287943 349.08329452099997 L 868.2419690900052 349.08329452099997 L 882.9436520600052 363.78497749099995 L 882.9436520600052 386.654262111 L 653.0605668287943 386.654262111 L 653.0605668287943 349.08329452099997 M 868.2419690900052 349.08329452099997 L 868.2419690900052 363.78497749099995 L 882.9436520600052 363.78497749099995" stroke-miterlimit="10" stroke-width="1.3612669416666667" stroke-dasharray=""/><g><text fill="black" stroke="none" font-family="sans-serif" font-size="11pt" font-style="normal" font-weight="normal" text-decoration="normal" x="675.9298514487942" y="371.95257914099994" text-anchor="start" dominant-baseline="alphabetic">Create temporary file object.</text></g><g><g><rect fill="white" stroke="none" x="94.10102565617059" y="411.15706706099996" width="654.5710932165625" height="21.23576429"/></g><text fill="black" stroke="none" font-family="sans-serif" font-size="11pt" font-style="normal" font-weight="normal" text-decoration="normal" x="96.55130615117059" y="425.85875003099994" text-anchor="start" dominant-baseline="alphabetic">fileNodeId = {NameSpace = 2, IdentifierType = Numeric, Identifier = 11575}, fileHandle = 392898219</text></g><g><path fill="none" stroke="black" paint-order="fill stroke markers" d=" M 768.0021094443997 432.392831351 L 77.49356896783723 432.392831351" stroke-miterlimit="10" stroke-width="1.3612669416666667" stroke-dasharray="6.53408132"/><g transform="translate(74.77103508450391,432.392831351) translate(-74.77103508450391,-432.392831351)"><path fill="black" stroke="none" paint-order="stroke fill markers" d=" M 88.38370450117057 425.58649664266665 L 74.77103508450391 432.392831351 L 88.38370450117057 439.1991660593333 Z"/></g></g><g><g><rect fill="white" stroke="none" x="229.56626613468623" y="456.89563630099997" width="383.6406122595312" height="21.23576429"/></g><text fill="black" stroke="none" font-family="sans-serif" font-size="11pt" font-style="normal" font-weight="normal" text-decoration="normal" x="232.01654662968622" y="471.59731927099995" text-anchor="start" dominant-baseline="alphabetic">Write (fileHandle = 392898219, data = 4749463e8396d18)</text></g><g><path fill="none" stroke="black" paint-order="fill stroke markers" d=" M 74.77103508450391 478.131400591 L 765.2795755610664 478.131400591" stroke-miterlimit="10" stroke-width="1.3612669416666667" stroke-dasharray=""/><g transform="translate(768.0021094443997,478.131400591) translate(-768.0021094443997,-478.131400591)"><path fill="black" stroke="none" paint-order="stroke fill markers" d=" M 754.389440027733 471.32506588266665 L 768.0021094443997 478.131400591 L 754.389440027733 484.9377352993333 Z"/></g></g><path fill="white" stroke="black" paint-order="fill stroke markers" d=" M 570.3655671339701 502.63420554100003 L 950.9369687848294 502.63420554100003 L 965.6386517548294 517.335888511 L 965.6386517548294 540.205173131 L 570.3655671339701 540.205173131 L 570.3655671339701 502.63420554100003 M 950.9369687848294 502.63420554100003 L 950.9369687848294 517.335888511 L 965.6386517548294 517.335888511" stroke-miterlimit="10" stroke-width="1.3612669416666667" stroke-dasharray=""/><g><text fill="black" stroke="none" font-family="sans-serif" font-size="11pt" font-style="normal" font-weight="normal" text-decoration="normal" x="593.23485175397" y="525.5034901610001" text-anchor="start" dominant-baseline="alphabetic">Start writing bytes to file starting from current position.</text></g><g><g><rect fill="white" stroke="none" x="277.34721095890495" y="564.707978081" width="288.0787226110937" height="21.23576429"/></g><text fill="black" stroke="none" font-family="sans-serif" font-size="11pt" font-style="normal" font-weight="normal" text-decoration="normal" x="279.79749145390497" y="579.409661051" text-anchor="start" dominant-baseline="alphabetic">CloseAndCommit (fileHandle = 392898219)</text></g><g><path fill="none" stroke="black" paint-order="fill stroke markers" d=" M 74.77103508450391 585.943742371 L 765.2795755610664 585.943742371" stroke-miterlimit="10" stroke-width="1.3612669416666667" stroke-dasharray=""/><g transform="translate(768.0021094443997,585.943742371) translate(-768.0021094443997,-585.943742371)"><path fill="black" stroke="none" paint-order="stroke fill markers" d=" M 754.389440027733 579.1374076626666 L 768.0021094443997 585.943742371 L 754.389440027733 592.7500770793333 Z"/></g></g><path fill="white" stroke="black" paint-order="fill stroke markers" d=" M 600.0935181837748 610.446547321 L 921.2090177350248 610.446547321 L 935.9107007050247 625.148230291 L 935.9107007050247 648.017514911 L 600.0935181837748 648.017514911 L 600.0935181837748 610.446547321 M 921.2090177350248 610.446547321 L 921.2090177350248 625.148230291 L 935.9107007050247 625.148230291" stroke-miterlimit="10" stroke-width="1.3612669416666667" stroke-dasharray=""/><g><text fill="black" stroke="none" font-family="sans-serif" font-size="11pt" font-style="normal" font-weight="normal" text-decoration="normal" x="622.9628028037747" y="633.315831941" text-anchor="start" dominant-baseline="alphabetic">Check if file is complete via hash calculation.</text></g><path fill="white" stroke="black" paint-order="fill stroke markers" d=" M 524.6998109083842 672.520319861 L 996.6027250104154 672.520319861 L 1011.3044079804154 687.2220028309999 L 1011.3044079804154 710.091287451 L 524.6998109083842 710.091287451 L 524.6998109083842 672.520319861 M 996.6027250104154 672.520319861 L 996.6027250104154 687.2220028309999 L 1011.3044079804154 687.2220028309999" stroke-miterlimit="10" stroke-width="1.3612669416666667" stroke-dasharray=""/><g><text fill="black" stroke="none" font-family="sans-serif" font-size="11pt" font-style="normal" font-weight="normal" text-decoration="normal" x="547.5690955283841" y="695.389604481" text-anchor="start" dominant-baseline="alphabetic">Apply the content of the written file and delete temporary file object. </text></g><path fill="white" stroke="black" paint-order="fill stroke markers" d=" M 582.0226563673685 734.5940924009999 L 939.279879551431 734.5940924009999 L 953.981562521431 749.2957753709999 L 953.981562521431 772.1650599909999 L 582.0226563673685 772.1650599909999 L 582.0226563673685 734.5940924009999 M 939.279879551431 734.5940924009999 L 939.279879551431 749.2957753709999 L 953.981562521431 749.2957753709999" stroke-miterlimit="10" stroke-width="1.3612669416666667" stroke-dasharray=""/><g><text fill="black" stroke="none" font-family="sans-serif" font-size="11pt" font-style="normal" font-weight="normal" text-decoration="normal" x="604.8919409873685" y="757.4633770209999" text-anchor="start" dominant-baseline="alphabetic">Set TransferRequired of recipe object flag to false.</text></g><g><g><rect fill="white" stroke="none" x="318.90411861271355" y="796.6678649409998" width="204.96490730347656" height="21.23576429"/></g><text fill="black" stroke="none" font-family="sans-serif" font-size="11pt" font-style="normal" font-weight="normal" text-decoration="normal" x="321.35439910771356" y="811.3695479109998" text-anchor="start" dominant-baseline="alphabetic">completionStateMachine = null</text></g><g><path fill="none" stroke="black" paint-order="fill stroke markers" d=" M 768.0021094443997 817.9036292309999 L 77.49356896783723 817.9036292309999" stroke-miterlimit="10" stroke-width="1.3612669416666667" stroke-dasharray="6.53408132"/><g transform="translate(74.77103508450391,817.9036292309999) translate(-74.77103508450391,-817.9036292309999)"><path fill="black" stroke="none" paint-order="stroke fill markers" d=" M 88.38370450117057 811.0972945226665 L 74.77103508450391 817.9036292309999 L 88.38370450117057 824.7099639393332 Z"/></g></g></g><g/><g/></g></svg>